<?xml version="1.0" encoding="UTF-8" standalone="no"?>
<!-- Created with Inkscape (http://www.inkscape.org/) -->

<svg
   xmlns:dc="http://purl.org/dc/elements/1.1/"
   xmlns:cc="http://creativecommons.org/ns#"
   xmlns:rdf="http://www.w3.org/1999/02/22-rdf-syntax-ns#"
   xmlns:svg="http://www.w3.org/2000/svg"
   xmlns="http://www.w3.org/2000/svg"
   xmlns:sodipodi="http://sodipodi.sourceforge.net/DTD/sodipodi-0.dtd"
   xmlns:inkscape="http://www.inkscape.org/namespaces/inkscape"
   id="svg7384"
   height="16"
   width="16"
   version="1.1"
   inkscape:version="0.91 r13725"
   sodipodi:docname="helpchannel.svg">
  <defs
     id="defs9" />
  <sodipodi:namedview
     pagecolor="#ffffff"
     bordercolor="#666666"
     borderopacity="1"
     objecttolerance="10"
     gridtolerance="10"
     guidetolerance="10"
     inkscape:pageopacity="0"
     inkscape:pageshadow="2"
     inkscape:window-width="795"
     inkscape:window-height="653"
     id="namedview7"
     showgrid="false"
     inkscape:zoom="20.85965"
     inkscape:cx="11.960173"
     inkscape:cy="8.6375254"
     inkscape:window-x="367"
     inkscape:window-y="67"
     inkscape:window-maximized="0"
     inkscape:current-layer="svg7384" />
  <metadata
     id="metadata90">
    <rdf:RDF>
      <cc:Work
         rdf:about="">
        <dc:format>image/svg+xml</dc:format>
        <dc:type
           rdf:resource="http://purl.org/dc/dcmitype/StillImage" />
        <dc:title>Gnome Symbolic Icon Theme</dc:title>
      </cc:Work>
    </rdf:RDF>
  </metadata>
  <title
     id="title9167">Gnome Symbolic Icon Theme</title>
  <rect
     style="color:#000000;display:inline;overflow:visible;visibility:visible;fill:none;fill-opacity:1;fill-rule:evenodd;stroke:#5a6e80;stroke-width:0.65497428;stroke-linecap:butt;stroke-linejoin:round;stroke-miterlimit:4;stroke-dasharray:none;stroke-dashoffset:0;stroke-opacity:1;marker:none;enable-background:accumulate"
     id="rect4154-6"
     width="12.759501"
     height="12.759501"
     x="1.8169591"
     y="1.3942049" />
  <rect
     style="color:#000000;display:inline;overflow:visible;visibility:visible;fill:#b4dcff;fill-opacity:1;fill-rule:evenodd;stroke:#5a6e80;stroke-width:0.65497428;stroke-linecap:butt;stroke-linejoin:round;stroke-miterlimit:4;stroke-dasharray:none;stroke-dashoffset:0;stroke-opacity:1;marker:none;enable-background:accumulate"
     id="rect4154"
     width="12.759501"
     height="12.759501"
     x="1.7577041"
     y="1.4534624" />
  <path
     stroke-miterlimit="10"
     d="m 10.485701,12.041215 c 0.08866,-0.216684 0.0013,-0.470311 -0.26053,-0.470195 -0.214217,8.8e-5 -0.3993912,0.164878 -0.5922586,0.243749 -0.284696,0.116441 -0.564473,0.225031 -0.853106,0.332145 -0.126073,0.04676 -0.262388,0.07296 -0.391077,0.113646 -0.08693,0.02735 -0.281406,0.09282 -0.364087,0.0429 0.158294,-0.245775 0.371023,-0.469477 0.567986,-0.684063 0.215997,-0.235689 0.417853,-0.487807 0.61772,-0.737183 0.08651,-0.107573 0.154066,-0.23212 0.237007,-0.343129 0.09315,-0.124698 0.205915,-0.235511 0.299963,-0.354289 C 9.8999498,9.9919141 10.245228,9.6627855 10.124642,9.3865245 9.8633938,8.7875565 9.0017044,9.7362075 8.8065454,9.9701251 c -0.20163,0.2415729 -0.442316,0.4521529 -0.664877,0.6792249 -0.213672,0.217617 -0.431282,0.435331 -0.655711,0.646084 -0.05923,-0.115205 0.07341,-0.360723 0.122431,-0.471085 0.0607,-0.136519 0.145078,-0.262365 0.224999,-0.388413 0.163684,-0.258071 0.359805,-0.5059919 0.505116,-0.7743235 0.147284,-0.271774 0.332254,-0.530943 0.499716,-0.791975 0.08517,-0.13302 0.158719,-0.269235 0.229329,-0.410466 0.06371,-0.127028 0.175138,-0.267164 0.197126,-0.408697 0.04345,-0.279488 -0.178698,-0.495896 -0.454041,-0.417754 -0.276536,0.07829 -0.421387,0.422431 -0.571137,0.641224 -0.172653,0.251956 -0.370162,0.481754 -0.556028,0.723636 -0.205011,0.266803 -0.363025,0.560424 -0.5558,0.832721 -0.09715,0.1372346 -0.201345,0.2686285 -0.309577,0.3971525 -0.06485,0.0773 -0.219761,0.312821 -0.335769,0.287175 -0.130963,-0.02882 0.12601,-0.7777375 0.156782,-0.8816565 0.08687,-0.290902 0.185856,-0.579009 0.26922,-0.870811 0.07058,-0.247289 0.118553,-0.509766 0.182708,-0.755752 0.03321,-0.126779 0.07843,-0.275225 0.06171,-0.404859 -0.01517,-0.119042 -0.191125,-0.215389 -0.292323,-0.232539 -0.317098,-0.05449 -0.460566,0.245676 -0.554852,0.484499 -0.12434,0.314182 -0.240423,0.631853 -0.361067,0.947324 -0.1342,0.351915 -0.2887688,0.701157 -0.3902333,1.063669 C 5.4704601,10.16312 5.3544095,10.451008 5.2021298,10.72158 5.0398447,11.009839 4.8823398,11.218224 4.5722801,11.349644 4.4334662,11.408224 4.2640898,11.496413 4.1667465,11.345944 4.0818555,11.215052 4.0359341,11.038451 3.992936,10.889864 3.944643,10.722715 4.00593,10.582513 4.010521,10.416448 4.014961,10.249189 3.917406,10.122258 3.8293731,9.9879001 3.6536651,9.7195305 3.3863136,9.5212745 3.0606969,9.4867165 c -0.097435,-0.01041 -0.1909459,-0.0028 -0.2589958,0.07767 -0.1017313,0.120331 -0.010871,0.240091 0.036252,0.3645686 0.100468,0.2663849 0.1846608,0.5442289 0.1937714,0.8144939 0.0083,0.252335 0.093487,0.489299 0.090856,0.743542 -0.00157,0.161283 -0.038923,0.321867 -0.07327,0.478906 -0.040193,0.184875 0.00981,0.352176 0.057195,0.529616 0.038398,0.143315 0.094496,0.288881 0.1424852,0.431183 0.053705,0.159164 0.065989,0.329641 0.1123672,0.490703 0.049642,0.171805 0.090989,0.345506 0.1411241,0.517177 0.039867,0.137368 0.077423,0.230435 0.1499301,0.355609 0.025836,0.04462 0.088295,0.119398 0.087151,0.172388 -0.00176,0.08188 -0.0021,0.16416 -0.00438,0.246171 -0.0029,0.110631 -0.067572,0.349099 0.050219,0.406679 0.3047614,0.148741 0.6417635,0.245138 0.9658326,0.342574 0.3238166,0.09715 0.6509242,0.187597 0.9823802,0.254753 0.1236901,0.02506 0.7544975,0.192388 0.7775795,-0.0267 0.01678,-0.158798 0.0064,-0.351733 0.06735,-0.501704 0.06431,-0.158289 0.18775,-0.207949 0.317133,-0.30036 0.12989,-0.09281 0.235003,-0.247799 0.340908,-0.366706 0.108146,-0.121364 0.212067,-0.248895 0.317612,-0.375632 0.19374,-0.232653 0.402717,-0.451992 0.591481,-0.688053 0.06464,-0.08103 0.168963,-0.128067 0.249883,-0.198095 0.137404,-0.118722 0.276576,-0.214667 0.45093,-0.272134 0.133226,-0.04377 0.300004,-0.06483 0.419076,-0.144578 0.132,-0.08828 0.290975,-0.153733 0.430354,-0.229737 0.1494244,-0.08119 0.2965624,-0.168549 0.4404686,-0.258729 0.137859,-0.08616 0.274918,-0.157398 0.349302,-0.309078 z"
     id="path5"
     style="fill:#ffb32a;fill-opacity:1;stroke:#d7870a;stroke-width:0.12024423;stroke-miterlimit:10;stroke-dasharray:none;stroke-opacity:1"
     inkscape:connector-curvature="0" />
  <path
     stroke-miterlimit="10"
     d="m 6.5884804,3.5892245 c -0.09958,0.201306 -0.0332,0.449943 0.217296,0.467646 0.204985,0.01449 0.393387,-0.130588 0.583304,-0.192932 0.280341,-0.09205 0.555441,-0.176913 0.838916,-0.259765 0.123818,-0.03617 0.256037,-0.05196 0.381943,-0.08213 0.08505,-0.02025 0.275587,-0.06967 0.351305,-0.01628 -0.168194,0.224402 -0.38697,0.423981 -0.590041,0.615909 -0.222721,0.210825 -0.433028,0.438333 -0.641246,0.663353 -0.0901,0.09705 -0.163219,0.211624 -0.250136,0.312202 -0.09762,0.112982 -0.213061,0.211341 -0.311136,0.318595 -0.159175,0.174177 -0.511959,0.465614 -0.415374,0.738167 0.20922,0.590914 1.098303,-0.258184 1.300965,-0.468732 0.209373,-0.217435 0.454009,-0.402552 0.682424,-0.604686 0.219266,-0.19369 0.442306,-0.387206 0.671398,-0.573598 0.04884,0.114268 -0.09479,0.340171 -0.149208,0.442438 -0.06737,0.1265 -0.156676,0.241177 -0.241724,0.356352 -0.174187,0.235802 -0.378721,0.459684 -0.536026,0.706554 -0.159427,0.25003 -0.354056,0.485434 -0.532059,0.723813 -0.09055,0.121486 -0.170196,0.246822 -0.247371,0.377157 -0.06961,0.117214 -0.185765,0.243724 -0.216437,0.377656 -0.06059,0.264477 0.137245,0.486669 0.40603,0.430636 0.269937,-0.05609 0.431961,-0.375537 0.590142,-0.574703 0.182352,-0.22934 0.386982,-0.435786 0.581292,-0.654588 0.214326,-0.241346 0.385506,-0.511549 0.588498,-0.758984 0.1023,-0.124706 0.2109424,-0.243342 0.3232534,-0.358956 0.06732,-0.06955 0.2315712,-0.284375 0.3408312,-0.25194 0.123353,0.03648 -0.173503,0.735619 -0.210019,0.832962 -0.102918,0.272444 -0.2172432,0.54139 -0.3168702,0.814934 -0.08437,0.231819 -0.1481334,0.479712 -0.2262604,0.710723 -0.0404,0.119052 -0.09378,0.258018 -0.0866,0.383198 0.0064,0.11494 0.168225,0.219107 0.26389,0.242404 0.2997156,0.07371 0.4574226,-0.203738 0.5638946,-0.425845 0.140358,-0.292171 0.273053,-0.588241 0.409962,-0.881896 0.152361,-0.327605 0.32403,-0.651266 0.445788,-0.991239 0.100515,-0.280035 0.231151,-0.547609 0.395276,-0.796149 0.174903,-0.264783 0.339795,-0.453463 0.645426,-0.558115 0.136813,-0.04661 0.304886,-0.119467 0.387789,0.03118 0.07232,0.131024 0.104245,0.303133 0.135277,0.448239 0.03483,0.163227 -0.03335,0.293212 -0.04904,0.451803 -0.01564,0.159742 0.06908,0.287837 0.144172,0.422391 0.149867,0.268753 0.392196,0.476652 0.701419,0.531879 0.09252,0.0166 0.182521,0.01566 0.253111,-0.0567 0.105533,-0.108218 0.02674,-0.228997 -0.0099,-0.351312 -0.07801,-0.261734 -0.139661,-0.533324 -0.129987,-0.792553 0.0092,-0.242018 -0.05616,-0.474559 -0.03634,-0.717659 0.01248,-0.154219 0.05915,-0.305336 0.1027,-0.453265 0.05104,-0.174166 0.01457,-0.337655 -0.01869,-0.510666 -0.02699,-0.139747 -0.07076,-0.282853 -0.106997,-0.422284 -0.04056,-0.155954 -0.04071,-0.319915 -0.07413,-0.477186 -0.03581,-0.167776 -0.06356,-0.336799 -0.09985,-0.504479 -0.0288,-0.134156 -0.0584,-0.225765 -0.119265,-0.350475 -0.02168,-0.04445 -0.07636,-0.120257 -0.07166,-0.170884 0.0073,-0.07823 0.01319,-0.156936 0.02094,-0.235256 0.01028,-0.105664 0.08841,-0.329444 -0.02038,-0.392557 C 12.92748,0.94053551 12.611572,0.82536249 12.30811,0.71007549 c -0.303239,-0.114998 -0.610084,-0.223804 -0.922674,-0.31062 -0.11665,-0.0324 -0.708865,-0.235435 -0.745861,-0.02737 -0.02687,0.150807 -0.03009,0.336126 -0.09859,0.475483 -0.07231,0.14708502 -0.193804,0.18620401 -0.323896,0.26582401 -0.130604,0.07997 -0.2417312,0.22112 -0.3511612,0.327692 -0.1117414,0.108769 -0.2198584,0.223728 -0.3294754,0.337817 -0.201218,0.209435 -0.416108,0.405093 -0.612796,0.618127 -0.06736,0.07314 -0.170391,0.111046 -0.252586,0.172547 -0.139558,0.104251 -0.279257,0.186587 -0.450002,0.229712 -0.130459,0.03281 -0.291477,0.04161 -0.41084,0.109823 -0.132316,0.07549 -0.288888,0.127301 -0.427428,0.190542 -0.148506,0.06752 -0.295242,0.141098 -0.439078,0.217595 -0.137777,0.07307 -0.273773,0.131901 -0.355271,0.271978 z"
     id="path5-3"
     style="fill:#ffffff;fill-opacity:1;stroke:#000001;stroke-width:0.11534894;stroke-miterlimit:10;stroke-dasharray:none;stroke-opacity:1"
     inkscape:connector-curvature="0" />
</svg>
